<svg width="90" height="83" viewBox="0 0 90 83" fill="none" xmlns="http://www.w3.org/2000/svg">
<circle cx="45.2262" cy="41.1148" r="41.1148" fill="#CBE6FF"/>
<path d="M24.923 25.9611H0.433716V70.9026H24.923V25.9611Z" fill="#068374"/>
<path d="M25.3567 24.5021H0V27.6667H25.3567V24.5021Z" fill="#1BA998" fill-opacity="0.54"/>
<path d="M17.9834 48.4423H7.35693V70.5945H17.9834V48.4423Z" fill="#499EE9"/>
<path d="M17.4496 49.264H7.89081V69.7723H17.4496V49.264Z" fill="white"/>
<path d="M12.9619 48.4423H12.3781V70.5945H12.9619V48.4423Z" fill="#499EE9"/>
<path d="M7.99291 33.3185H2.92157V43.6959H7.99291V33.3185Z" fill="#499EE9"/>
<path d="M7.74013 33.7083H3.16925V43.3254H7.74013V33.7083Z" fill="white"/>
<path d="M5.60507 33.318H5.32147V43.6954H5.60507V33.318Z" fill="#499EE9"/>
<path d="M7.98468 38.6978V38.3279H2.91333V38.6978H7.98468Z" fill="#499EE9"/>
<path d="M15.1971 33.318H10.1257V43.6954H15.1971V33.318Z" fill="#499EE9"/>
<path d="M14.9634 33.7083H10.3925V43.3254H14.9634V33.7083Z" fill="white"/>
<path d="M12.8116 33.318H12.528V43.6954H12.8116V33.318Z" fill="#499EE9"/>
<path d="M15.1998 38.6872V38.3173H10.1285V38.6872H15.1998Z" fill="#499EE9"/>
<path d="M22.4213 33.3179H17.3499V43.6953H22.4213V33.3179Z" fill="#499EE9"/>
<path d="M22.1705 33.7083H17.5997V43.3254H22.1705V33.7083Z" fill="white"/>
<path d="M20.0351 33.3179H19.7515V43.6953H20.0351V33.3179Z" fill="#499EE9"/>
<path d="M22.4154 38.6969V38.327H17.3441V38.6969H22.4154Z" fill="#499EE9"/>
<path d="M25.3567 68.3546H0V71.5192H25.3567V68.3546Z" fill="#1BA998" fill-opacity="0.54"/>
<path d="M89.5661 25.9611H65.0768V70.9026H89.5661V25.9611Z" fill="#068374"/>
<path d="M90.0009 24.5021H64.6442V27.6667H90.0009V24.5021Z" fill="#1BA998" fill-opacity="0.54"/>
<path d="M82.6263 48.4423H71.9998V70.5945H82.6263V48.4423Z" fill="#499EE9"/>
<path d="M82.0926 49.264H72.5338V69.7723H82.0926V49.264Z" fill="white"/>
<path d="M77.6049 48.4423H77.0211V70.5945H77.6049V48.4423Z" fill="#499EE9"/>
<path d="M72.6338 33.3184H67.5625V43.6958H72.6338V33.3184Z" fill="#499EE9"/>
<path d="M72.3837 33.7084H67.8128V43.3255H72.3837V33.7084Z" fill="white"/>
<path d="M70.2483 33.3179H69.9647V43.6953H70.2483V33.3179Z" fill="#499EE9"/>
<path d="M72.6331 38.6913V38.3214H67.5618V38.6913H72.6331Z" fill="#499EE9"/>
<path d="M79.8574 33.3181H74.7861V43.6956H79.8574V33.3181Z" fill="#499EE9"/>
<path d="M79.6068 33.7084H75.0359V43.3255H79.6068V33.7084Z" fill="white"/>
<path d="M77.4547 33.3179H77.1711V43.6953H77.4547V33.3179Z" fill="#499EE9"/>
<path d="M79.8483 38.7011V38.3312H74.777V38.7011H79.8483Z" fill="#499EE9"/>
<path d="M87.0656 33.318H81.9943V43.6954H87.0656V33.318Z" fill="#499EE9"/>
<path d="M86.8136 33.7083H82.2427V43.3254H86.8136V33.7083Z" fill="white"/>
<path d="M84.6783 33.318H84.3947V43.6954H84.6783V33.318Z" fill="#499EE9"/>
<path d="M87.0635 38.6906V38.3207H81.9922V38.6906H87.0635Z" fill="#499EE9"/>
<path d="M89.9996 68.3546H64.6429V71.5192H89.9996V68.3546Z" fill="#1BA998" fill-opacity="0.54"/>
<path opacity="0.12" d="M66.4573 28.2651H23.9556V71.5397H66.4573V28.2651Z" fill="#1BA998" fill-opacity="0.54"/>
<path d="M65.4772 0.963013H24.506V71.5397H65.4772V0.963013Z" fill="#068374"/>
<path d="M54.8842 44.624H35.116V66.8187H54.8842V44.624Z" fill="#499EE9"/>
<path d="M54.0498 45.5403H35.933V65.8795H54.0498V45.5403Z" fill="white"/>
<path d="M45.3753 44.7651H44.6246V66.6545H45.3753V44.7651Z" fill="#499EE9"/>
<path d="M55.9348 64.493H34.048V67.4054H55.9348V64.493Z" fill="#1BA998" fill-opacity="0.54"/>
<path d="M55.618 44.2015H34.3817V46.2214H55.618V44.2015Z" fill="#1BA998" fill-opacity="0.54"/>
<path d="M35.7499 28.6534H29.9946V39.9504H35.7499V28.6534Z" fill="#499EE9"/>
<path d="M35.4493 29.0762H30.2778V39.5511H35.4493V29.0762Z" fill="white"/>
<path d="M33.0137 28.6533H32.6967V39.9503H33.0137V28.6533Z" fill="#499EE9"/>
<path d="M35.7394 34.4944V34.0951H29.9841V34.4944H35.7394Z" fill="#499EE9"/>
<path d="M43.8235 28.6542H38.0682V39.9512H43.8235V28.6542Z" fill="#499EE9"/>
<path d="M43.54 29.0762H38.3686V39.5511H43.54V29.0762Z" fill="white"/>
<path d="M41.1044 28.6533H40.7874V39.9503H41.1044V28.6533Z" fill="#499EE9"/>
<path d="M43.8273 34.4985V34.0992H38.072V34.4985H43.8273Z" fill="#499EE9"/>
<path d="M51.9144 28.6542H46.1591V39.9512H51.9144V28.6542Z" fill="#499EE9"/>
<path d="M51.6139 29.0762H46.4425V39.5511H51.6139V29.0762Z" fill="white"/>
<path d="M49.1951 28.6533H48.8781V39.9503H49.1951V28.6533Z" fill="#499EE9"/>
<path d="M51.9149 34.5024V34.1031H46.1596V34.5024H51.9149Z" fill="#499EE9"/>
<path d="M60.007 28.6534H54.2517V39.9504H60.007V28.6534Z" fill="#499EE9"/>
<path d="M59.7051 29.0763H54.5336V39.5512H59.7051V29.0763Z" fill="white"/>
<path d="M57.2859 28.6536H56.969V39.9505H57.2859V28.6536Z" fill="#499EE9"/>
<path d="M60.0029 34.5069V34.1077H54.2476V34.5069H60.0029Z" fill="#499EE9"/>
<path d="M35.7499 13H29.9946V24.297H35.7499V13Z" fill="#499EE9"/>
<path d="M35.4493 13.4227H30.2778V23.8977H35.4493V13.4227Z" fill="white"/>
<path d="M33.0137 12.9999H32.6967V24.2969H33.0137V12.9999Z" fill="#499EE9"/>
<path d="M35.7394 18.8409V18.4417H29.9841V18.8409H35.7394Z" fill="#499EE9"/>
<path d="M43.8235 13.0007H38.0682V24.2977H43.8235V13.0007Z" fill="#499EE9"/>
<path d="M43.54 13.4227H38.3686V23.8977H43.54V13.4227Z" fill="white"/>
<path d="M41.1044 12.9999H40.7874V24.2969H41.1044V12.9999Z" fill="#499EE9"/>
<path d="M43.8273 18.8451V18.4458H38.072V18.8451H43.8273Z" fill="#499EE9"/>
<path d="M51.9144 13.0007H46.1591V24.2977H51.9144V13.0007Z" fill="#499EE9"/>
<path d="M51.6139 13.4227H46.4425V23.8977H51.6139V13.4227Z" fill="white"/>
<path d="M49.1951 12.9999H48.8781V24.2969H49.1951V12.9999Z" fill="#499EE9"/>
<path d="M51.9149 18.849V18.4497H46.1596V18.849H51.9149Z" fill="#499EE9"/>
<path d="M60.007 13H54.2517V24.297H60.007V13Z" fill="#499EE9"/>
<path d="M59.7051 13.4229H54.5336V23.8978H59.7051V13.4229Z" fill="white"/>
<path d="M57.2859 13.0001H56.969V24.2971H57.2859V13.0001Z" fill="#499EE9"/>
<path d="M60.0029 18.8535V18.4542H54.2476V18.8535H60.0029Z" fill="#499EE9"/>
<path d="M65.4772 66.9127H24.506V71.5161H65.4772V66.9127Z" fill="#1BA998" fill-opacity="0.54"/>
<path d="M66.1609 0H23.8219V4.69729H66.1609V0Z" fill="#1BA998" fill-opacity="0.54"/>
</svg>
