<svg width="64" height="83" viewBox="0 0 64 83" fill="none" xmlns="http://www.w3.org/2000/svg">
<path d="M57.6011 0H22.1799C22.1799 0 14.8161 7.77455 12.3263 10.2909C9.29646 13.3518 0.107375 22.2873 0.107375 22.2873L0 22.3511V76.0898C0 79.6222 2.86488 82.4902 6.39891 82.4902H57.5995C61.1351 82.4902 64 79.6207 64 76.0898V6.40047C64.0016 2.86333 61.1367 0 57.6011 0Z" fill="#068374" fill-opacity="0.7"/>
<path d="M22.1799 0V16.0004C22.1799 19.5344 19.3134 22.3993 15.7794 22.3993H0L22.1799 0Z" fill="white"/>
<path d="M51.1256 69.2552H12.726C11.5433 69.2552 10.5925 68.0445 10.5925 66.5459C10.5925 65.0458 11.5433 63.8335 12.726 63.8335H51.1256C52.3052 63.8335 53.2591 65.0458 53.2591 66.5459C53.2591 68.0429 52.3052 69.2552 51.1256 69.2552ZM53.2591 56.6752C53.2591 55.1766 52.3052 53.9613 51.1256 53.9613H12.726C11.5433 53.9613 10.5925 55.1766 10.5925 56.6752C10.5925 58.1722 11.5433 59.386 12.726 59.386H51.1256C52.3052 59.386 53.2591 58.1722 53.2591 56.6752ZM53.2591 46.8076C53.2591 45.3075 52.3052 44.0952 51.1256 44.0952H12.726C11.5433 44.0952 10.5925 45.3075 10.5925 46.8076C10.5925 48.3062 11.5433 49.5169 12.726 49.5169H51.1256C52.3052 49.5169 53.2591 48.3062 53.2591 46.8076ZM31.8418 36.94C31.8418 35.4399 30.8847 34.2277 29.7052 34.2277H12.7275C11.5448 34.2277 10.594 35.4399 10.594 36.94C10.594 38.4386 11.5448 39.6509 12.7275 39.6509H29.7052C30.8847 39.6509 31.8418 38.4386 31.8418 36.94Z" fill="white"/>
<path d="M51.1255 12.7589H35.1236V30.3871H51.1255V12.7589Z" fill="white"/>
</svg>
