<svg width="27" height="27" viewBox="0 0 27 27" fill="none" xmlns="http://www.w3.org/2000/svg">
<g clip-path="url(#clip0_114_59)">
<path d="M13.5 1.6875C16.4932 1.68675 19.4017 2.68075 21.7684 4.51325C24.1351 6.34575 25.8256 8.91281 26.5743 11.8109C27.323 14.7089 27.0873 17.7736 25.9043 20.5231C24.7213 23.2726 22.6581 25.5509 20.0391 27H6.96093C4.34189 25.5509 2.2787 23.2726 1.09571 20.5231C-0.0872763 17.7736 -0.322966 14.7089 0.425695 11.8109C1.17436 8.91281 2.86491 6.34575 5.23158 4.51325C7.59825 2.68075 10.5068 1.68675 13.5 1.6875V1.6875ZM21.1444 22.8319C22.1513 21.8303 22.9496 20.639 23.493 19.3268C24.0364 18.0146 24.3141 16.6077 24.3101 15.1875H21.9375V13.5H24.1802C23.9969 12.3203 23.6176 11.1796 23.058 10.125H20.25V8.4375H21.9442C20.635 6.79186 18.872 5.56623 16.8733 4.91231V6.75H15.1858V4.50731C14.0675 4.33336 12.9291 4.33336 11.8108 4.50731V6.75H10.1233V4.91231C8.12518 5.56731 6.36242 6.79273 5.05237 8.4375H6.74662V10.125H3.93862C3.37904 11.1796 2.99975 12.3203 2.81643 13.5H5.05912V15.1875H2.68649C2.68649 18.0748 3.81037 20.79 5.85224 22.8319C6.13405 23.1137 6.43106 23.3786 6.73649 23.625H11.8091L12.7727 10.125H14.2189L15.1824 23.625H20.2551C20.5622 23.3786 20.8575 23.1137 21.1393 22.8319H21.1444Z" fill="#068374"/>
</g>
<defs>
<clipPath id="clip0_114_59">
<rect width="27" height="27" fill="white"/>
</clipPath>
</defs>
</svg>
